# xmcd
#
# Track frame offsets:
# 150
# 12975
# 31592
# 49885
# 65877
# 69002
# 83787
# 99447
# 104480
# 121372
# 133830
# 147265
# 152925
# 170845
# 188962
# 197565
#
# Disc length: 2814 seconds
#
#
# Revision: 2
# Processed by: cddbd v1.5.2PL0 Copyright (c) Steve Scherf et al.
# Submitted via: FreeRIP 2.941 
#
DISCID=e30afc10
DTITLE=Cypress Hill - Cypress Hill
DYEAR=1991
DGENRE=Rap
TTITLE0=Pigs
TTITLE1=How I Could Just Kill A Man
TTITLE2=Hand On The Pump
TTITLE3=Hole In The Head
TTITLE4=Ultraviolet Dreams
TTITLE5=Light Another
TTITLE6=The Phunky Feel One
TTITLE7=Break It Up
TTITLE8=Real Estate
TTITLE9=Stoned Is The Way Of The Walk
TTITLE10=Psycobetabuckdown
TTITLE11=Something For The Blunted
TTITLE12=Latin Lingo
TTITLE13=The Funky Cypress Hill Shit
TTITLE14=Tres Equis
TTITLE15=Born To Get Busy
EXTD=fixed by nick 2019
EXTT0=
EXTT1=
EXTT2=
EXTT3=
EXTT4=
EXTT5=
EXTT6=
EXTT7=
EXTT8=
EXTT9=
EXTT10=
EXTT11=
EXTT12=
EXTT13=
EXTT14=
EXTT15=
PLAYORDER=
